/vscmnt/brussel_pixiu_data/_data_brussel/112/vsc11236/PredSimResults/SUBJ10opt3D/weighted-LRposFixed/expIG/worker_02.mot
version=1
nRows=4
nColumns=50
inDegrees=yes
endheader
                time	         pelvis_tilt	         pelvis_list	     pelvis_rotation	           pelvis_tx	           pelvis_ty	           pelvis_tz	       hip_flexion_r	     hip_adduction_r	      hip_rotation_r	        knee_angle_r	       ankle_angle_r	         mtp_angle_r	       hip_flexion_l	     hip_adduction_l	      hip_rotation_l	        knee_angle_l	       ankle_angle_l	         mtp_angle_l	    lumbar_extension	      lumbar_bending	     lumbar_rotation	 ercspn_r/activation	 intobl_r/activation	 extobl_r/activation	    abd_r/activation	    add_r/activation	hamstrings_r/activation	bifemsh_r/activation	glut_max_r/activation	iliopsoas_r/activation	rect_fem_r/activation	  vasti_r/activation	gastroc_r/activation	 soleus_r/activation	tib_ant_r/activation	 ercspn_l/activation	 intobl_l/activation	 extobl_l/activation	    abd_l/activation	    add_l/activation	hamstrings_l/activation	bifemsh_l/activation	glut_max_l/activation	iliopsoas_l/activation	rect_fem_l/activation	  vasti_l/activation	gastroc_l/activation	 soleus_l/activation	tib_ant_l/activation	
          0.00000000	         -4.18365166	         -0.90283869	          6.77754276	          0.00000000	          0.82295615	         -0.01288391	         30.59916878	         -1.44541586	         -5.70127523	         -7.72761692	          2.99603181	          0.26308080	        -15.57886806	         -0.63026200	         -0.46843258	         -6.48305319	          8.69112269	         26.62556903	         -6.31287767	         -0.47396429	         -6.88334812	          0.10776470	          0.14795339	          0.01000002	          0.00999999	          0.20709197	          0.11065068	          0.19771188	          0.05624196	          0.09796745	          0.01000009	          0.01000000	          0.01714007	          0.01324884	          0.28931557	          0.09519607	          0.00999999	          0.01000000	          0.05710341	          0.01000006	          0.01130705	          0.21328168	          0.01552828	          0.42333840	          0.01000008	          0.01000000	          0.31318728	          0.25785449	          0.02291697	
          0.01151356	         -4.21987028	         -0.88648620	          6.88203838	          0.01556624	          0.82157885	         -0.01254818	         30.47127168	         -1.31829514	         -5.34260749	         -9.34441256	          2.64814753	          0.24924828	        -15.60930637	         -0.76936829	         -0.78823236	         -8.29965596	          8.04491876	         28.31491275	         -6.07373278	          0.01463062	         -7.20982337	          0.09041477	          0.12413315	          0.01000001	          0.01000007	          0.17375052	          0.09576311	          0.16588064	          0.10147523	          0.08219486	          0.01000000	          0.00999999	          0.01438055	          0.01111580	          0.35783240	          0.11150853	          0.00999999	          0.01000001	          0.04790985	          0.01719869	          0.01955249	          0.17894370	          0.01302826	          0.35518164	          0.01000001	          0.01000000	          0.27558895	          0.24684293	          0.01922738	
          0.02302713	         -4.24711219	         -0.88720994	          6.94778636	          0.03137301	          0.82049975	         -0.01208513	         30.18096219	         -1.18061737	         -5.04466037	        -10.68289328	          2.18378109	          0.24031930	        -15.48789334	         -0.93994812	         -1.13301807	        -10.40495147	          7.22763745	         29.97062680	         -5.81778726	          0.51760382	         -7.50556242	          0.10369220	          0.10414792	          0.01000001	          0.05498611	          0.16970971	          0.08328677	          0.13917415	          0.11498422	          0.06896162	          0.01000000	          0.01000000	          0.01206531	          0.00999999	          0.41529777	          0.12399617	          0.00999999	          0.01000000	          0.04019645	          0.01442975	          0.01640496	          0.15013407	          0.01093074	          0.29799800	          0.01000003	          0.01000000	          0.23121960	          0.23008996	          0.01613180	
          0.03454069	         -4.26612747	         -0.88494353	          6.97472268	          0.04721793	          0.81982070	         -0.01150162	         29.83419096	         -1.04330490	         -4.85329175	        -11.93477782	          1.71875679	          0.22717109	        -15.16593654	         -1.12096094	         -1.50496422	        -12.85158118	          6.22526324	         31.49588635	         -5.56815783	          1.01224673	         -7.76537258	          0.10675949	          0.08738028	          0.01000001	          0.09455570	          0.20820361	          0.07150514	          0.11676736	          0.11965600	          0.05785892	          0.01000001	          0.01000003	          0.01012282	          0.01000000	          0.44755069	          0.15055126	          0.00999999	          0.01000000	          0.03372489	          0.01210669	          0.01770975	          0.12596275	          0.01000007	          0.25002083	          0.01000002	          0.01000000	          0.19399363	          0.21107025	          0.01353461	
